<svg width="24" height="25" viewBox="0 0 24 25" fill="none" xmlns="http://www.w3.org/2000/svg">
<path d="M4 17.5V18.5H7V6.5H4V15.5H5V17.5H4ZM3 4.5H8C8.26522 4.5 8.51957 4.60536 8.70711 4.79289C8.89464 4.98043 9 5.23478 9 5.5V19.5C9 19.7652 8.89464 20.0196 8.70711 20.2071C8.51957 20.3946 8.26522 20.5 8 20.5H3C2.73478 20.5 2.48043 20.3946 2.29289 20.2071C2.10536 20.0196 2 19.7652 2 19.5V5.5C2 5.23478 2.10536 4.98043 2.29289 4.79289C2.48043 4.60536 2.73478 4.5 3 4.5ZM12 7.5H20C20.5304 7.5 21.0391 7.71071 21.4142 8.08579C21.7893 8.46086 22 8.96957 22 9.5V15.5C22 16.0304 21.7893 16.5391 21.4142 16.9142C21.0391 17.2893 20.5304 17.5 20 17.5H12C11.4696 17.5 10.9609 17.2893 10.5858 16.9142C10.2107 16.5391 10 16.0304 10 15.5V9.5C10 8.96957 10.2107 8.46086 10.5858 8.08579C10.9609 7.71071 11.4696 7.5 12 7.5ZM12 9.5V15.5H20V9.5H12ZM14 18.5H18C18.2652 18.5 18.5196 18.6054 18.7071 18.7929C18.8946 18.9804 19 19.2348 19 19.5C19 19.7652 18.8946 20.0196 18.7071 20.2071C18.5196 20.3946 18.2652 20.5 18 20.5H14C13.7348 20.5 13.4804 20.3946 13.2929 20.2071C13.1054 20.0196 13 19.7652 13 19.5C13 19.2348 13.1054 18.9804 13.2929 18.7929C13.4804 18.6054 13.7348 18.5 14 18.5Z" fill="white"/>
</svg>
