<svg width="24" height="24" viewBox="0 0 24 24" fill="none" xmlns="http://www.w3.org/2000/svg">
<path d="M12 1.8501C11.73 1.8501 11.45 1.9201 11.22 2.0501L3.78 6.3501C3.3 6.6301 3 7.1501 3 7.7101V16.2901C3 16.8501 3.3 17.3701 3.78 17.6501L5.73 18.7701C6.68 19.2301 7 19.2401 7.44 19.2401C8.84 19.2401 9.65 18.3901 9.65 16.9101V8.4401C9.65 8.3201 9.55 8.2201 9.43 8.2201H8.5C8.37 8.2201 8.27 8.3201 8.27 8.4401V16.9101C8.27 17.5701 7.59 18.2201 6.5 17.6701L4.45 16.5001C4.41633 16.4763 4.3888 16.4449 4.36967 16.4084C4.35055 16.3719 4.34038 16.3313 4.34 16.2901V7.7101C4.34 7.6201 4.38 7.5401 4.45 7.5001L11.89 3.2101C11.95 3.1701 12.05 3.1701 12.11 3.2101L19.55 7.5001C19.62 7.5401 19.66 7.6201 19.66 7.7101V16.2901C19.66 16.3701 19.62 16.4501 19.55 16.5001L12.11 20.7901C12.05 20.8301 11.95 20.8301 11.88 20.7901L10 19.6501C9.92 19.6201 9.84 19.6101 9.79 19.6401C9.26 19.9401 9.16 20.0001 8.67 20.1501C8.55 20.1901 8.36 20.2601 8.74 20.4701L11.22 21.9401C11.46 22.0801 11.72 22.1501 12 22.1501C12.28 22.1501 12.54 22.0801 12.78 21.9401L20.22 17.6501C20.7 17.3701 21 16.8501 21 16.2901V7.7101C21 7.1501 20.7 6.6301 20.22 6.3501L12.78 2.0501C12.55 1.9201 12.28 1.8501 12 1.8501ZM14 8.0001C11.88 8.0001 10.61 8.8901 10.61 10.3901C10.61 12.0001 11.87 12.4701 13.91 12.6701C16.34 12.9101 16.53 13.2701 16.53 13.7501C16.53 14.5801 15.86 14.9301 14.3 14.9301C12.32 14.9301 11.9 14.4401 11.75 13.4601C11.7395 13.4094 11.7119 13.3639 11.6718 13.3312C11.6318 13.2984 11.5817 13.2804 11.53 13.2801H10.57C10.45 13.2801 10.36 13.3701 10.36 13.5001C10.36 14.7401 11.04 16.2401 14.3 16.2401C16.65 16.2401 18 15.3101 18 13.6901C18 12.0801 16.92 11.6601 14.63 11.3501C12.32 11.0501 12.09 10.8901 12.09 10.3501C12.09 9.9001 12.29 9.3001 14 9.3001C15.5 9.3001 16.09 9.6301 16.32 10.6601C16.34 10.7601 16.43 10.8301 16.53 10.8301H17.5C17.55 10.8301 17.61 10.8101 17.65 10.7601C17.69 10.7201 17.72 10.6601 17.7 10.6001C17.56 8.8201 16.38 8.0001 14 8.0001Z" fill="black"/>
</svg>
